# xmcd
#
# Track frame offsets:
#	150
#	17133
#	32425
#	47478
#	62807
#
# Disc length: 1044 seconds
#
# Revision: 0
# Processed by: cddbd v1.5.2PL0 Copyright (c) Steve Scherf et al.
# Submitted via: audiograbber 1.83.01
#
DISCID=35041205
DTITLE=Dierks Bentley - Country and Cold Cans
DYEAR=2012
DGENRE=Country
TTITLE0=Country and Cold Cans
TTITLE1=Grab A Beer
TTITLE2=Back Porch
TTITLE3=Summer On Fire
TTITLE4=Tip It On Back
EXTD=
EXTT0=
EXTT1=
EXTT2=
EXTT3=
EXTT4=
PLAYORDER=
